<mxfile host="app.diagrams.net" modified="2022-12-21T03:29:40.121Z" agent="5.0 (Windows NT 10.0; Win64; x64) AppleWebKit/537.36 (KHTML, like Gecko) Chrome/103.0.0.0 Safari/537.36" version="20.7.4" etag="fJ65al7EG9DdkAGzV55k" type="github">
  <diagram id="9P-1mE87JRZIRl5D1et9" name="第 1 页">
    <mxGraphModel dx="976" dy="589" grid="1" gridSize="10" guides="1" tooltips="1" connect="1" arrows="1" fold="1" page="1" pageScale="1" pageWidth="827" pageHeight="1169" math="0" shadow="0">
      <root>
        <mxCell id="0" />
        <mxCell id="1" parent="0" />
        <mxCell id="tLOhBSAkIycoshasq9bG-2" value="" style="rounded=1;whiteSpace=wrap;html=1;" vertex="1" parent="1">
          <mxGeometry x="60" y="170" width="180" height="50" as="geometry" />
        </mxCell>
        <mxCell id="tLOhBSAkIycoshasq9bG-3" value="" style="rounded=1;whiteSpace=wrap;html=1;" vertex="1" parent="1">
          <mxGeometry x="320" y="170" width="180" height="50" as="geometry" />
        </mxCell>
        <mxCell id="tLOhBSAkIycoshasq9bG-4" value="" style="rounded=1;whiteSpace=wrap;html=1;" vertex="1" parent="1">
          <mxGeometry x="580" y="170" width="180" height="50" as="geometry" />
        </mxCell>
        <mxCell id="tLOhBSAkIycoshasq9bG-5" value="&lt;font style=&quot;font-size: 18px;&quot;&gt;Segment&lt;/font&gt;" style="text;html=1;strokeColor=none;fillColor=none;align=center;verticalAlign=middle;whiteSpace=wrap;rounded=0;" vertex="1" parent="1">
          <mxGeometry x="110" y="230" width="60" height="30" as="geometry" />
        </mxCell>
        <mxCell id="tLOhBSAkIycoshasq9bG-7" value="" style="endArrow=classic;html=1;rounded=0;fontSize=18;entryX=0;entryY=0.5;entryDx=0;entryDy=0;exitX=1;exitY=0.5;exitDx=0;exitDy=0;" edge="1" parent="1" source="tLOhBSAkIycoshasq9bG-2" target="tLOhBSAkIycoshasq9bG-3">
          <mxGeometry width="50" height="50" relative="1" as="geometry">
            <mxPoint x="280" y="194.5" as="sourcePoint" />
            <mxPoint x="310" y="195" as="targetPoint" />
          </mxGeometry>
        </mxCell>
        <mxCell id="tLOhBSAkIycoshasq9bG-9" value="next" style="text;html=1;strokeColor=none;fillColor=none;align=center;verticalAlign=middle;whiteSpace=wrap;rounded=0;fontSize=18;" vertex="1" parent="1">
          <mxGeometry x="250" y="200" width="60" height="30" as="geometry" />
        </mxCell>
        <mxCell id="tLOhBSAkIycoshasq9bG-12" value="" style="endArrow=classic;html=1;rounded=0;fontSize=18;entryX=0;entryY=0.5;entryDx=0;entryDy=0;exitX=1;exitY=0.5;exitDx=0;exitDy=0;" edge="1" parent="1">
          <mxGeometry width="50" height="50" relative="1" as="geometry">
            <mxPoint x="500" y="194.5" as="sourcePoint" />
            <mxPoint x="580" y="194.5" as="targetPoint" />
          </mxGeometry>
        </mxCell>
        <mxCell id="tLOhBSAkIycoshasq9bG-13" value="next" style="text;html=1;strokeColor=none;fillColor=none;align=center;verticalAlign=middle;whiteSpace=wrap;rounded=0;fontSize=18;" vertex="1" parent="1">
          <mxGeometry x="510" y="200" width="60" height="30" as="geometry" />
        </mxCell>
        <mxCell id="tLOhBSAkIycoshasq9bG-14" value="&lt;font style=&quot;font-size: 12px;&quot;&gt;&amp;lt;val, enq, deq&amp;gt;&lt;/font&gt;" style="rounded=0;whiteSpace=wrap;html=1;fontSize=18;" vertex="1" parent="1">
          <mxGeometry x="70" y="175" width="90" height="40" as="geometry" />
        </mxCell>
        <mxCell id="tLOhBSAkIycoshasq9bG-15" value="..." style="text;html=1;strokeColor=none;fillColor=none;align=center;verticalAlign=middle;whiteSpace=wrap;rounded=0;fontSize=12;" vertex="1" parent="1">
          <mxGeometry x="170" y="180" width="60" height="30" as="geometry" />
        </mxCell>
        <mxCell id="tLOhBSAkIycoshasq9bG-16" value="Cell" style="text;html=1;strokeColor=none;fillColor=none;align=center;verticalAlign=middle;whiteSpace=wrap;rounded=0;fontSize=12;" vertex="1" parent="1">
          <mxGeometry x="85" y="130" width="60" height="30" as="geometry" />
        </mxCell>
        <mxCell id="tLOhBSAkIycoshasq9bG-17" value="" style="endArrow=none;html=1;rounded=0;fontSize=12;entryX=0.5;entryY=1;entryDx=0;entryDy=0;exitX=0.5;exitY=0;exitDx=0;exitDy=0;" edge="1" parent="1" source="tLOhBSAkIycoshasq9bG-14" target="tLOhBSAkIycoshasq9bG-16">
          <mxGeometry width="50" height="50" relative="1" as="geometry">
            <mxPoint x="210" y="160" as="sourcePoint" />
            <mxPoint x="260" y="110" as="targetPoint" />
          </mxGeometry>
        </mxCell>
        <mxCell id="tLOhBSAkIycoshasq9bG-18" value="&lt;font style=&quot;font-size: 12px;&quot;&gt;&amp;lt;val, enq, deq&amp;gt;&lt;/font&gt;" style="rounded=0;whiteSpace=wrap;html=1;fontSize=18;" vertex="1" parent="1">
          <mxGeometry x="330" y="175" width="90" height="40" as="geometry" />
        </mxCell>
        <mxCell id="tLOhBSAkIycoshasq9bG-20" value="..." style="text;html=1;strokeColor=none;fillColor=none;align=center;verticalAlign=middle;whiteSpace=wrap;rounded=0;fontSize=12;" vertex="1" parent="1">
          <mxGeometry x="430" y="180" width="60" height="30" as="geometry" />
        </mxCell>
        <mxCell id="tLOhBSAkIycoshasq9bG-21" value="&lt;font style=&quot;font-size: 12px;&quot;&gt;&amp;lt;val, enq, deq&amp;gt;&lt;/font&gt;" style="rounded=0;whiteSpace=wrap;html=1;fontSize=18;" vertex="1" parent="1">
          <mxGeometry x="590" y="175" width="90" height="40" as="geometry" />
        </mxCell>
        <mxCell id="tLOhBSAkIycoshasq9bG-22" value="..." style="text;html=1;strokeColor=none;fillColor=none;align=center;verticalAlign=middle;whiteSpace=wrap;rounded=0;fontSize=12;" vertex="1" parent="1">
          <mxGeometry x="690" y="180" width="60" height="30" as="geometry" />
        </mxCell>
        <mxCell id="tLOhBSAkIycoshasq9bG-23" value="Handle" style="swimlane;whiteSpace=wrap;html=1;fontSize=12;" vertex="1" parent="1">
          <mxGeometry x="80" y="330" width="170" height="200" as="geometry" />
        </mxCell>
        <mxCell id="tLOhBSAkIycoshasq9bG-32" value="&amp;lt;val, pending, id&amp;gt;" style="rounded=1;whiteSpace=wrap;html=1;fontSize=18;fillColor=none;gradientColor=default;" vertex="1" parent="tLOhBSAkIycoshasq9bG-23">
          <mxGeometry x="5" y="50" width="155" height="40" as="geometry" />
        </mxCell>
        <mxCell id="tLOhBSAkIycoshasq9bG-33" value="&amp;lt;id, pending, idx&amp;gt;" style="rounded=1;whiteSpace=wrap;html=1;fontSize=18;fillColor=none;gradientColor=default;" vertex="1" parent="tLOhBSAkIycoshasq9bG-23">
          <mxGeometry x="5" y="110" width="155" height="40" as="geometry" />
        </mxCell>
        <mxCell id="tLOhBSAkIycoshasq9bG-37" value="" style="endArrow=none;html=1;rounded=0;fontSize=18;" edge="1" parent="tLOhBSAkIycoshasq9bG-23">
          <mxGeometry width="50" height="50" relative="1" as="geometry">
            <mxPoint x="-40" y="69.5" as="sourcePoint" />
            <mxPoint y="70" as="targetPoint" />
          </mxGeometry>
        </mxCell>
        <mxCell id="tLOhBSAkIycoshasq9bG-36" value="" style="endArrow=none;html=1;rounded=0;fontSize=18;" edge="1" parent="tLOhBSAkIycoshasq9bG-23">
          <mxGeometry width="50" height="50" relative="1" as="geometry">
            <mxPoint x="-40" y="140" as="sourcePoint" />
            <mxPoint y="140" as="targetPoint" />
          </mxGeometry>
        </mxCell>
        <mxCell id="tLOhBSAkIycoshasq9bG-24" value="" style="curved=1;endArrow=classic;html=1;rounded=0;fontSize=12;exitX=0.5;exitY=0;exitDx=0;exitDy=0;entryX=0.5;entryY=1;entryDx=0;entryDy=0;" edge="1" parent="1" source="tLOhBSAkIycoshasq9bG-23" target="tLOhBSAkIycoshasq9bG-2">
          <mxGeometry width="50" height="50" relative="1" as="geometry">
            <mxPoint x="230" y="350" as="sourcePoint" />
            <mxPoint x="280" y="300" as="targetPoint" />
            <Array as="points">
              <mxPoint x="230" y="300" />
              <mxPoint x="190" y="240" />
            </Array>
          </mxGeometry>
        </mxCell>
        <mxCell id="tLOhBSAkIycoshasq9bG-25" value="&lt;font style=&quot;font-size: 18px;&quot;&gt;head&lt;/font&gt;" style="edgeLabel;html=1;align=center;verticalAlign=middle;resizable=0;points=[];fontSize=12;" vertex="1" connectable="0" parent="tLOhBSAkIycoshasq9bG-24">
          <mxGeometry x="0.0749" y="4" relative="1" as="geometry">
            <mxPoint x="-6" y="-6" as="offset" />
          </mxGeometry>
        </mxCell>
        <mxCell id="tLOhBSAkIycoshasq9bG-28" value="" style="curved=1;endArrow=classic;html=1;rounded=0;fontSize=12;exitX=0.5;exitY=0;exitDx=0;exitDy=0;entryX=0.5;entryY=1;entryDx=0;entryDy=0;" edge="1" parent="1" source="tLOhBSAkIycoshasq9bG-23" target="tLOhBSAkIycoshasq9bG-3">
          <mxGeometry width="50" height="50" relative="1" as="geometry">
            <mxPoint x="280" y="350" as="sourcePoint" />
            <mxPoint x="330" y="300" as="targetPoint" />
            <Array as="points">
              <mxPoint x="330" y="310" />
              <mxPoint x="380" y="280" />
            </Array>
          </mxGeometry>
        </mxCell>
        <mxCell id="tLOhBSAkIycoshasq9bG-29" value="&lt;font style=&quot;font-size: 18px;&quot;&gt;tail&lt;/font&gt;" style="edgeLabel;html=1;align=center;verticalAlign=middle;resizable=0;points=[];fontSize=12;" vertex="1" connectable="0" parent="tLOhBSAkIycoshasq9bG-28">
          <mxGeometry x="0.2837" y="5" relative="1" as="geometry">
            <mxPoint x="17" y="-13" as="offset" />
          </mxGeometry>
        </mxCell>
        <mxCell id="tLOhBSAkIycoshasq9bG-30" value="Queue" style="text;html=1;strokeColor=none;fillColor=none;align=center;verticalAlign=middle;whiteSpace=wrap;rounded=0;fontSize=18;" vertex="1" parent="1">
          <mxGeometry x="40" y="70" width="60" height="30" as="geometry" />
        </mxCell>
        <mxCell id="tLOhBSAkIycoshasq9bG-31" value="" style="rounded=0;whiteSpace=wrap;html=1;fontSize=18;gradientColor=default;fillColor=none;" vertex="1" parent="1">
          <mxGeometry x="21.5" y="120" width="785" height="140" as="geometry" />
        </mxCell>
        <mxCell id="tLOhBSAkIycoshasq9bG-34" value="enq" style="text;html=1;strokeColor=none;fillColor=none;align=center;verticalAlign=middle;whiteSpace=wrap;rounded=0;fontSize=18;" vertex="1" parent="1">
          <mxGeometry y="380" width="60" height="30" as="geometry" />
        </mxCell>
        <mxCell id="tLOhBSAkIycoshasq9bG-35" value="deq" style="text;html=1;strokeColor=none;fillColor=none;align=center;verticalAlign=middle;whiteSpace=wrap;rounded=0;fontSize=18;" vertex="1" parent="1">
          <mxGeometry y="450" width="60" height="30" as="geometry" />
        </mxCell>
        <mxCell id="tLOhBSAkIycoshasq9bG-38" value="Handle" style="swimlane;whiteSpace=wrap;html=1;fontSize=12;" vertex="1" parent="1">
          <mxGeometry x="329" y="330" width="170" height="200" as="geometry" />
        </mxCell>
        <mxCell id="tLOhBSAkIycoshasq9bG-39" value="&amp;lt;val, pending, id&amp;gt;" style="rounded=1;whiteSpace=wrap;html=1;fontSize=18;fillColor=none;gradientColor=default;" vertex="1" parent="tLOhBSAkIycoshasq9bG-38">
          <mxGeometry x="5" y="50" width="155" height="40" as="geometry" />
        </mxCell>
        <mxCell id="tLOhBSAkIycoshasq9bG-40" value="&amp;lt;id, pending, idx&amp;gt;" style="rounded=1;whiteSpace=wrap;html=1;fontSize=18;fillColor=none;gradientColor=default;" vertex="1" parent="tLOhBSAkIycoshasq9bG-38">
          <mxGeometry x="5" y="110" width="155" height="40" as="geometry" />
        </mxCell>
        <mxCell id="tLOhBSAkIycoshasq9bG-43" value="" style="endArrow=classic;html=1;rounded=0;fontSize=18;exitX=1;exitY=0.5;exitDx=0;exitDy=0;entryX=0;entryY=0.5;entryDx=0;entryDy=0;" edge="1" parent="1" source="tLOhBSAkIycoshasq9bG-23" target="tLOhBSAkIycoshasq9bG-38">
          <mxGeometry width="50" height="50" relative="1" as="geometry">
            <mxPoint x="270" y="460" as="sourcePoint" />
            <mxPoint x="320" y="410" as="targetPoint" />
            <Array as="points">
              <mxPoint x="300" y="430" />
            </Array>
          </mxGeometry>
        </mxCell>
        <mxCell id="tLOhBSAkIycoshasq9bG-44" value="next" style="edgeLabel;html=1;align=center;verticalAlign=middle;resizable=0;points=[];fontSize=18;" vertex="1" connectable="0" parent="tLOhBSAkIycoshasq9bG-43">
          <mxGeometry x="-0.0886" y="-2" relative="1" as="geometry">
            <mxPoint as="offset" />
          </mxGeometry>
        </mxCell>
        <mxCell id="tLOhBSAkIycoshasq9bG-45" value="Handle" style="swimlane;whiteSpace=wrap;html=1;fontSize=12;" vertex="1" parent="1">
          <mxGeometry x="580" y="330" width="170" height="200" as="geometry" />
        </mxCell>
        <mxCell id="tLOhBSAkIycoshasq9bG-46" value="&amp;lt;val, pending, id&amp;gt;" style="rounded=1;whiteSpace=wrap;html=1;fontSize=18;fillColor=none;gradientColor=default;" vertex="1" parent="tLOhBSAkIycoshasq9bG-45">
          <mxGeometry x="5" y="50" width="155" height="40" as="geometry" />
        </mxCell>
        <mxCell id="tLOhBSAkIycoshasq9bG-47" value="&amp;lt;id, pending, idx&amp;gt;" style="rounded=1;whiteSpace=wrap;html=1;fontSize=18;fillColor=none;gradientColor=default;" vertex="1" parent="tLOhBSAkIycoshasq9bG-45">
          <mxGeometry x="5" y="110" width="155" height="40" as="geometry" />
        </mxCell>
        <mxCell id="tLOhBSAkIycoshasq9bG-48" value="" style="endArrow=classic;html=1;rounded=0;fontSize=18;exitX=1;exitY=0.5;exitDx=0;exitDy=0;entryX=0;entryY=0.5;entryDx=0;entryDy=0;" edge="1" parent="1">
          <mxGeometry width="50" height="50" relative="1" as="geometry">
            <mxPoint x="501" y="429.5" as="sourcePoint" />
            <mxPoint x="580" y="429.5" as="targetPoint" />
            <Array as="points">
              <mxPoint x="551" y="429.5" />
            </Array>
          </mxGeometry>
        </mxCell>
        <mxCell id="tLOhBSAkIycoshasq9bG-49" value="next" style="edgeLabel;html=1;align=center;verticalAlign=middle;resizable=0;points=[];fontSize=18;" vertex="1" connectable="0" parent="tLOhBSAkIycoshasq9bG-48">
          <mxGeometry x="-0.0886" y="-2" relative="1" as="geometry">
            <mxPoint as="offset" />
          </mxGeometry>
        </mxCell>
        <mxCell id="tLOhBSAkIycoshasq9bG-50" value="" style="curved=1;endArrow=classic;html=1;rounded=0;fontSize=18;exitX=0.5;exitY=0;exitDx=0;exitDy=0;entryX=0.5;entryY=1;entryDx=0;entryDy=0;" edge="1" parent="1" source="tLOhBSAkIycoshasq9bG-38" target="tLOhBSAkIycoshasq9bG-2">
          <mxGeometry width="50" height="50" relative="1" as="geometry">
            <mxPoint x="430" y="310" as="sourcePoint" />
            <mxPoint x="480" y="260" as="targetPoint" />
            <Array as="points">
              <mxPoint x="320" y="320" />
              <mxPoint x="260" y="270" />
            </Array>
          </mxGeometry>
        </mxCell>
        <mxCell id="tLOhBSAkIycoshasq9bG-51" value="head" style="edgeLabel;html=1;align=center;verticalAlign=middle;resizable=0;points=[];fontSize=18;" vertex="1" connectable="0" parent="tLOhBSAkIycoshasq9bG-50">
          <mxGeometry x="0.0238" y="2" relative="1" as="geometry">
            <mxPoint as="offset" />
          </mxGeometry>
        </mxCell>
        <mxCell id="tLOhBSAkIycoshasq9bG-52" value="" style="curved=1;endArrow=classic;html=1;rounded=0;fontSize=18;exitX=0.46;exitY=0.006;exitDx=0;exitDy=0;exitPerimeter=0;entryX=0.5;entryY=1;entryDx=0;entryDy=0;" edge="1" parent="1" source="tLOhBSAkIycoshasq9bG-38" target="tLOhBSAkIycoshasq9bG-3">
          <mxGeometry width="50" height="50" relative="1" as="geometry">
            <mxPoint x="430" y="320" as="sourcePoint" />
            <mxPoint x="480" y="270" as="targetPoint" />
            <Array as="points">
              <mxPoint x="480" y="320" />
              <mxPoint x="430" y="270" />
            </Array>
          </mxGeometry>
        </mxCell>
        <mxCell id="tLOhBSAkIycoshasq9bG-53" value="tail" style="edgeLabel;html=1;align=center;verticalAlign=middle;resizable=0;points=[];fontSize=18;" vertex="1" connectable="0" parent="tLOhBSAkIycoshasq9bG-52">
          <mxGeometry x="0.2726" y="-3" relative="1" as="geometry">
            <mxPoint as="offset" />
          </mxGeometry>
        </mxCell>
        <mxCell id="tLOhBSAkIycoshasq9bG-54" value="" style="curved=1;endArrow=classic;html=1;rounded=0;fontSize=18;exitX=0.5;exitY=0;exitDx=0;exitDy=0;entryX=0.5;entryY=1;entryDx=0;entryDy=0;" edge="1" parent="1" source="tLOhBSAkIycoshasq9bG-45" target="tLOhBSAkIycoshasq9bG-3">
          <mxGeometry width="50" height="50" relative="1" as="geometry">
            <mxPoint x="660" y="300" as="sourcePoint" />
            <mxPoint x="710" y="250" as="targetPoint" />
            <Array as="points">
              <mxPoint x="710" y="300" />
              <mxPoint x="660" y="250" />
            </Array>
          </mxGeometry>
        </mxCell>
        <mxCell id="tLOhBSAkIycoshasq9bG-55" value="head" style="edgeLabel;html=1;align=center;verticalAlign=middle;resizable=0;points=[];fontSize=18;" vertex="1" connectable="0" parent="tLOhBSAkIycoshasq9bG-54">
          <mxGeometry x="0.2328" y="4" relative="1" as="geometry">
            <mxPoint x="137" y="49" as="offset" />
          </mxGeometry>
        </mxCell>
        <mxCell id="tLOhBSAkIycoshasq9bG-56" value="" style="curved=1;endArrow=classic;html=1;rounded=0;fontSize=18;exitX=0.5;exitY=0;exitDx=0;exitDy=0;entryX=0.5;entryY=1;entryDx=0;entryDy=0;" edge="1" parent="1" source="tLOhBSAkIycoshasq9bG-45" target="tLOhBSAkIycoshasq9bG-4">
          <mxGeometry width="50" height="50" relative="1" as="geometry">
            <mxPoint x="730" y="310" as="sourcePoint" />
            <mxPoint x="780" y="260" as="targetPoint" />
            <Array as="points">
              <mxPoint x="780" y="310" />
              <mxPoint x="730" y="260" />
            </Array>
          </mxGeometry>
        </mxCell>
        <mxCell id="tLOhBSAkIycoshasq9bG-57" value="tail" style="edgeLabel;html=1;align=center;verticalAlign=middle;resizable=0;points=[];fontSize=18;" vertex="1" connectable="0" parent="tLOhBSAkIycoshasq9bG-56">
          <mxGeometry x="0.3364" y="3" relative="1" as="geometry">
            <mxPoint y="-1" as="offset" />
          </mxGeometry>
        </mxCell>
        <mxCell id="tLOhBSAkIycoshasq9bG-59" value="" style="endArrow=none;html=1;rounded=0;fontSize=18;" edge="1" parent="1">
          <mxGeometry width="50" height="50" relative="1" as="geometry">
            <mxPoint x="70" y="120" as="sourcePoint" />
            <mxPoint x="70" y="100" as="targetPoint" />
          </mxGeometry>
        </mxCell>
      </root>
    </mxGraphModel>
  </diagram>
</mxfile>
